<?xml version="1.0" standalone="no"?>
<!DOCTYPE svg PUBLIC "-//W3C//DTD SVG 20010904//EN"
 "http://www.w3.org/TR/2001/REC-SVG-20010904/DTD/svg10.dtd">
<svg version="1.0" xmlns="http://www.w3.org/2000/svg"
 width="700.000000pt" height="700.000000pt" viewBox="0 0 700.000000 700.000000"
 preserveAspectRatio="xMidYMid meet">
<metadata>
Created by potrace 1.11, written by Peter Selinger 2001-2013
</metadata>
<g transform="translate(0.000000,700.000000) scale(0.100000,-0.100000)"
fill="#000000" stroke="none">
<path d="M4387 6484 c-1 -1 -144 -5 -317 -8 -173 -3 -330 -8 -348 -11 -18 -2
-52 -7 -75 -10 -202 -28 -430 -118 -551 -219 -222 -185 -384 -413 -422 -596
-21 -104 -4 -240 32 -240 7 0 32 33 56 73 53 90 189 228 285 291 40 25 121 70
181 99 142 68 157 75 222 98 30 11 64 24 75 29 62 26 426 124 505 135 25 3 53
8 62 11 50 15 246 42 358 51 211 15 702 2 830 -23 8 -1 24 -3 35 -3 14 -1 4
-12 -35 -38 -67 -45 -218 -195 -324 -323 -43 -52 -86 -104 -95 -116 -83 -99
-235 -344 -450 -724 -32 -57 -151 -298 -151 -306 0 -2 -9 -23 -19 -47 -54
-117 -235 -552 -327 -787 -130 -329 -220 -547 -276 -670 -51 -113 -226 -464
-267 -536 -113 -200 -164 -287 -199 -344 -23 -36 -66 -105 -96 -155 -31 -49
-60 -96 -65 -104 -7 -11 -21 -4 -67 37 -128 114 -316 175 -518 167 -117 -5
-138 -8 -226 -30 -89 -23 -169 -54 -264 -101 -78 -39 -171 -96 -186 -113 -3
-4 -23 -19 -45 -36 -99 -73 -234 -236 -302 -365 -183 -348 -181 -657 8 -939
138 -206 362 -307 653 -295 295 12 600 133 866 343 75 59 190 173 238 236 25
33 49 62 52 65 26 20 224 299 309 435 95 151 257 459 341 645 18 41 46 102 61
135 15 33 45 101 67 150 22 50 51 115 64 145 14 30 32 75 42 100 10 25 22 53
28 63 5 10 38 93 74 185 36 92 70 178 76 192 5 14 23 61 38 105 15 44 43 125
63 180 19 55 59 168 87 250 160 462 383 1097 472 1345 229 631 431 970 733
1229 55 47 125 104 155 126 30 21 57 42 60 45 3 3 39 30 80 60 41 30 77 57 80
61 3 3 16 12 28 18 13 7 21 15 18 18 -3 3 -288 8 -633 10 -345 2 -728 5 -851
6 -123 1 -224 1 -225 1z"/>
</g>
</svg>
