<svg width="1236" height="1236" viewBox="0 0 1236 1236" version="1.1" xmlns="http://www.w3.org/2000/svg" xmlns:xlink="http://www.w3.org/1999/xlink">
<title>josh-music</title>
<desc>Created using Figma</desc>
<g id="Canvas" transform="matrix(3 0 0 3 2514 627)">
<clipPath id="clip-0" clip-rule="evenodd">
<path d="M -838 -209L -426 -209L -426 203L -838 203L -838 -209Z" fill="#FFFFFF"/>
</clipPath>
<g id="josh-music" clip-path="url(#clip-0)">
<g id="Vector 2">
<use xlink:href="#path0_fill" transform="translate(-763.062 -178)" fill="#01BECE"/>
<use xlink:href="#path1_stroke" transform="translate(-763.062 -178)" fill="#01BECE"/>
</g>
<g id="Ellipse 4">
<use xlink:href="#path2_fill" transform="matrix(0.664432 0.747349 -0.747707 0.664029 -693.008 50.0986)" fill="#01BECE"/>
</g>
</g>
</g>
<defs>
<path id="path0_fill" d="M 109.559 12.7066C 104.689 16.3573 76.0762 40.6954 83.3817 61.9912C 84.4253 65.0334 87.6431 57.732 88.8607 55.9067L 88.8785 55.88C 90.1367 53.9934 96.2388 44.8433 111.386 37.0446C 131.475 26.701 150.019 21.9987 171.655 18.1826C 196.493 13.8018 227.866 16.3573 240.447 18.1826C 232.533 23.0502 229.081 25.6083 215.487 41.9123C 206.356 52.8644 206.356 52.8644 189.919 80.8532C 176.685 103.386 177.743 104.583 163.741 136.831C 149.739 169.079 141.216 203.761 101.645 264.606C 99.4129 261.361 91.5393 254.262 77.9026 251.828C 14.5892 247.934 -7.93574 308.414 2.41356 330.319C 15.5633 378.995 85.208 365 115.647 321.192C 118.894 317.338 126.849 307.076 132.693 296.854C 140.607 287.118 169.829 223.839 181.396 189.158C 190.649 161.412 210.008 107.017 218.531 83.287C 239.23 29.1348 256.276 20.6164 283.062 0.537533C 247.144 0.131898 170.194 -0.435991 149.739 0.537533C 129.284 1.51106 115.069 8.57633 109.559 12.7066Z"/>
<path id="path1_stroke" d="M 83.3817 61.9912L 83.8546 61.829L 83.8546 61.829L 83.3817 61.9912ZM 109.559 12.7066L 109.859 13.1067L 109.859 13.1067L 109.559 12.7066ZM 149.739 0.537533L 149.715 0.0380979L 149.715 0.0380979L 149.739 0.537533ZM 283.062 0.537533L 283.362 0.937611L 284.541 0.054197L 283.068 0.0375645L 283.062 0.537533ZM 218.531 83.287L 218.064 83.1085L 218.061 83.118L 218.531 83.287ZM 181.396 189.158L 180.921 188.999L 180.921 188.999L 181.396 189.158ZM 132.693 296.854L 132.305 296.538L 132.279 296.57L 132.259 296.606L 132.693 296.854ZM 115.647 321.192L 115.265 320.87L 115.25 320.887L 115.236 320.907L 115.647 321.192ZM 2.41356 330.319L 2.89626 330.188L 2.88465 330.145L 2.86564 330.105L 2.41356 330.319ZM 77.9026 251.828L 77.9904 251.336L 77.9621 251.331L 77.9333 251.329L 77.9026 251.828ZM 101.645 264.606L 101.233 264.889L 101.657 265.505L 102.064 264.878L 101.645 264.606ZM 163.741 136.831L 163.282 136.632L 163.282 136.632L 163.741 136.831ZM 189.919 80.8532L 190.35 81.1064L 190.35 81.1064L 189.919 80.8532ZM 215.487 41.9123L 215.103 41.5921L 215.103 41.5921L 215.487 41.9123ZM 240.447 18.1826L 240.709 18.6085L 241.884 17.8859L 240.519 17.6878L 240.447 18.1826ZM 171.655 18.1826L 171.568 17.6902L 171.568 17.6902L 171.655 18.1826ZM 88.8607 55.9067L 89.2766 56.1841L 89.2766 56.1841L 88.8607 55.9067ZM 111.386 37.0446L 111.615 37.4892L 111.615 37.4892L 111.386 37.0446ZM 88.8785 55.88L 89.2944 56.1574L 89.2945 56.1574L 88.8785 55.88ZM 83.8546 61.829C 80.2883 51.433 85.4733 40.2113 92.3057 31.0305C 99.1168 21.8726 107.435 14.9239 109.859 13.1067L 109.259 12.3065C 106.814 14.1399 98.39 21.1857 91.5035 30.4334C 84.6383 39.6583 79.1696 51.2536 82.9087 62.1534L 83.8546 61.829ZM 109.859 13.1067C 115.286 9.03868 129.404 2.00592 149.763 1.03697L 149.715 0.0380979C 129.164 1.01619 114.853 8.11397 109.259 12.3065L 109.859 13.1067ZM 149.763 1.03697C 170.204 0.0639083 247.139 0.631876 283.057 1.0375L 283.068 0.0375645C 247.149 -0.36808 170.184 -0.93589 149.715 0.0380979L 149.763 1.03697ZM 282.762 0.137454C 269.382 10.1674 258.385 17.347 248.141 28.8016C 237.89 40.2707 228.427 55.9985 218.064 83.1085L 218.998 83.4655C 229.335 56.4233 238.744 40.8158 248.887 29.468C 259.037 18.1056 269.956 10.9866 283.362 0.937611L 282.762 0.137454ZM 218.061 83.118C 209.538 106.848 190.176 161.249 180.921 188.999L 181.87 189.316C 191.122 161.575 210.479 107.185 219.002 83.456L 218.061 83.118ZM 180.921 188.999C 175.144 206.323 164.957 230.789 155.22 252.153C 150.351 262.835 145.6 272.73 141.57 280.568C 137.532 288.421 134.245 294.152 132.305 296.538L 133.081 297.169C 135.098 294.688 138.432 288.858 142.46 281.025C 146.496 273.175 151.257 263.258 156.13 252.568C 165.873 231.189 176.08 206.674 181.87 189.316L 180.921 188.999ZM 132.259 296.606C 126.433 306.798 118.505 317.024 115.265 320.87L 116.029 321.514C 119.283 317.653 127.264 307.354 133.127 297.102L 132.259 296.606ZM 115.236 320.907C 100.097 342.696 75.2014 357.069 52.4841 359.941C 41.1299 361.376 30.3525 359.935 21.6135 355.15C 12.886 350.37 6.15033 342.234 2.89626 330.188L 1.93087 330.449C 5.25165 342.741 12.1527 351.109 21.1332 356.027C 30.1021 360.938 41.1039 362.388 52.6095 360.933C 75.6117 358.025 100.758 343.496 116.058 321.477L 115.236 320.907ZM 2.86564 330.105C 0.339785 324.759 -0.204093 316.99 1.43044 308.359C 3.06461 299.717 6.84782 290.324 12.9432 281.687C 25.1034 264.446 46.4024 250.392 77.8719 252.327L 77.9333 251.329C 46.0894 249.371 24.4692 263.61 12.126 281.111C 5.96958 289.846 2.10496 299.436 0.447902 308.173C -1.2088 316.921 -0.687307 324.926 1.96148 330.532L 2.86564 330.105ZM 77.8147 252.32C 91.3279 254.732 99.0812 261.761 101.233 264.889L 102.057 264.322C 99.7446 260.961 91.7507 253.792 77.9904 251.336L 77.8147 252.32ZM 102.064 264.878C 141.675 203.959 150.213 169.239 164.2 137.03L 163.282 136.632C 149.265 168.919 140.757 203.562 101.226 264.333L 102.064 264.878ZM 164.2 137.03C 178.215 104.75 177.137 103.605 190.35 81.1064L 189.487 80.6C 176.234 103.168 177.27 104.416 163.282 136.632L 164.2 137.03ZM 190.35 81.1064C 206.786 53.1191 206.768 53.1504 215.871 42.2325L 215.103 41.5921C 205.943 52.5785 205.925 52.6097 189.487 80.6L 190.35 81.1064ZM 215.871 42.2325C 222.662 34.0881 226.902 29.3962 230.437 26.1258C 233.957 22.867 236.758 21.0387 240.709 18.6085L 240.186 17.7567C 236.223 20.1942 233.341 22.0787 229.758 25.3918C 226.19 28.6933 221.907 33.4325 215.103 41.5921L 215.871 42.2325ZM 240.519 17.6878C 227.922 15.8604 196.47 13.3023 171.568 17.6902L 171.742 18.675C 196.517 14.3012 227.81 16.8541 240.376 18.6775L 240.519 17.6878ZM 88.4447 55.6292C 88.1276 56.1056 87.6874 56.9232 87.1991 57.8152C 86.7106 58.7075 86.171 59.6799 85.6367 60.5019C 85.0874 61.3474 84.6039 61.9357 84.2464 62.1538C 84.1638 62.206 84.141 62.2173 84.0897 62.2224C 84.0506 62.2335 84.0962 62.2404 84.0766 62.2242C 84.074 62.223 83.9705 62.1668 83.8546 61.829L 82.9087 62.1534C 83.0537 62.5762 83.2791 62.9573 83.657 63.1319C 84.0635 63.3198 84.4653 63.1917 84.7673 63.0075C 85.3446 62.6552 85.9374 61.8744 86.4752 61.0467C 87.028 60.1954 87.5864 59.1903 88.0763 58.2953C 88.5664 57.4 88.9849 56.6204 89.2766 56.1841L 88.4447 55.6292ZM 171.568 17.6902C 149.914 21.5099 131.298 26.2334 111.157 36.6001L 111.615 37.4892C 131.652 27.1686 150.124 22.4876 171.742 18.675L 171.568 17.6902ZM 111.157 36.6001C 95.9091 44.4507 89.749 53.6735 88.4625 55.6026L 89.2945 56.1574C 90.5243 54.3132 96.5686 45.2359 111.615 37.4892L 111.157 36.6001ZM 88.4625 55.6025L 88.4447 55.6292L 89.2766 56.1841L 89.2944 56.1574L 88.4625 55.6025Z"/>
<path id="path2_fill" d="M 95.2763 61.5159C 95.2763 95.4903 73.948 123.032 47.6381 123.032C 21.3283 123.032 0 95.4903 0 61.5159C 0 27.5416 21.3283 0 47.6381 0C 73.948 0 95.2763 27.5416 95.2763 61.5159Z"/>
</defs>
</svg>
